<svg xmlns="http://www.w3.org/2000/svg" viewBox="0 0 48 48" width="48" height="48">
  <path fill="#EA4335" d="M24 9.5c3.13 0 5.68 1.22 7.58 3.17l5.65-5.64C33.66 3.44 29.23 1.5 24 1.5 14.75 1.5 7.19 7.76 4.94 16.25l6.93 5.37C13.45 13.94 18.29 9.5 24 9.5z"/>
  <path fill="#34A853" d="M24 43.5c5.23 0 9.66-1.94 12.87-5.09l-6.93-5.37c-1.91 1.81-4.45 2.95-7.46 2.95-5.63 0-10.41-3.82-12.07-8.97l-6.8 5.24C7.07 39.93 14.63 43.5 24 43.5z"/>
  <path fill="#4A90E2" d="M43.96 24.47c0-1.64-.15-3.23-.42-4.75H24v9.04h11.38c-.49 2.51-1.87 4.6-3.85 6.06l6.93 5.37c4.05-3.73 6.5-9.25 6.5-15.72z"/>
  <path fill="#FBBC05" d="M11.87 24c0-1.59.26-3.12.72-4.55l-6.8-5.24C3.7 17.59 2.5 20.7 2.5 24c0 3.3 1.2 6.41 3.29 8.79l6.8-5.24c-.46-1.43-.72-2.96-.72-4.55z"/>
</svg>
